<svg fill="#225c6e" xmlns="http://www.w3.org/2000/svg"  viewBox="0 0 72 72" width="512px" height="512px"><path d="M51.278,18.827C56.011,23.043,59,29.178,59,36c0,12.682-10.317,23-23,23c-2.735,0-5.359-0.482-7.794-1.362L25.68,59.75	c-0.75,0.62-1.66,0.93-2.57,0.93c-0.99,0-1.97-0.36-2.74-1.09c-1.48-1.38-1.68-3.66-0.48-5.29l0.832-1.127	C15.989,48.957,13,42.822,13,36c0-12.682,10.317-23,23-23c2.735,0,5.359,0.482,7.794,1.362l2.526-2.112	c0.75-0.62,1.66-0.93,2.57-0.93c0.99,0,1.97,0.36,2.74,1.09c1.48,1.38,1.68,3.66,0.48,5.29L51.278,18.827z M45.14,28.44h-5.933	l9.683-13.12L27.94,32.84h7.343L26.86,43.56h5.933L23.11,56.68l20.95-17.52h-7.343L45.14,28.44z"/></svg>